:SAMPLES-PER-SECOND 30
:FRAME-RANGE 1-1700
:FULLY-SPECIFIED
:DEGREES
957
root  48.9241 38.5188 -62.9654 14.3144 -83.313 -13.175
RightUpLeg  -21.239 -7.35909 6.37468
RightLeg  21.7369 -0.366918 1.65811
RightFoot  -6.02916 -0.149029 2.32823
RightToes  -1.16417e-010 0 -3.6325e-017
Spine  29.5185 1.32839 0.334969
Spine1  7.97497 -3.94843 6.26841
HEad  -20.8754 8.65956 -12.5905
LeftShoulder1  3.37837 -8.55348 -21.6817
LeftArm  35.3797 -59.728 -90.404
LeftForeArm  20.2891 0.699376 -18.5523
LeftHand  -0.0292533 5.33745 -0.270665
RightShoulder  17.1707 39.7873 32.8695
RightArm  -11.2979 37.7895 18.675
RightForeArm  37.9084 2.20096 13.3473
RightHand  0.655941 4.54507 7.35682
LeftUpLeg  -105.682 26.9074 -56.0003
LeftLeg  92.3108 0.472389 -9.67594
LeftFoot  9.76562 3.47256 -18.8158
LeftToes  1.03528e-008 1.55373e-010 -2.26046e-010
958
root  48.3206 38.5797 -63.3528 16.7819 -82.8926 -15.0871
RightUpLeg  -20.4787 -7.5991 7.18644
RightLeg  21.157 -0.208722 1.88339
RightFoot  -7.72938 -0.180247 4.04802
RightToes  -1.16417e-010 0 -3.6325e-017
Spine  29.8056 1.66477 -0.0267709
Spine1  8.14387 -4.00564 6.33393
HEad  -22.4985 8.85549 -12.8957
LeftShoulder1  3.41408 -8.69474 -21.6477
LeftArm  39.7965 -58.6809 -92.5434
LeftForeArm  21.8325 -0.418602 -18.5409
LeftHand  -0.0332656 5.07872 3.37751
RightShoulder  17.175 39.7216 32.9427
RightArm  -10.2714 37.4675 18.5728
RightForeArm  39.1865 1.79239 13.5562
RightHand  0.645847 4.80491 7.03811
LeftUpLeg  -108.424 24.7815 -61.7602
LeftLeg  95.3004 1.13648 -10.8209
LeftFoot  11.0224 5.1616 -26.0526
LeftToes  1.03528e-008 1.55373e-010 -2.26046e-010
959
root  47.7584 38.5623 -63.718 19.0795 -82.261 -17.0721
RightUpLeg  -19.9501 -8.25271 8.23478
RightLeg  21.3048 0.303407 1.92806
RightFoot  -9.53495 -0.15107 5.46739
RightToes  -1.16417e-010 0 -3.6325e-017
Spine  30.3306 1.97905 -0.00441361
Spine1  8.01189 -3.90861 6.52963
HEad  -23.6079 8.76955 -13.0844
LeftShoulder1  3.35286 -8.56083 -21.4383
LeftArm  45.6998 -57.0699 -94.8888
LeftForeArm  17.1404 -1.8533 -18.718
LeftHand  -0.017444 5.66775 3.83416
RightShoulder  17.0452 39.3514 33.0032
RightArm  -8.16015 36.5564 18.213
RightForeArm  42.3577 1.93824 13.7039
RightHand  0.493854 5.44337 4.96305
LeftUpLeg  -108.688 23.6673 -64.2918
LeftLeg  97.2905 1.77704 -12.3103
LeftFoot  11.8401 7.21759 -34.5736
LeftToes  1.03528e-008 1.55373e-010 -2.26046e-010
960
root  47.2813 38.4484 -64.0476 20.1576 -81.6649 -17.8379
RightUpLeg  -20.2348 -9.95287 9.59165
RightLeg  22.6862 2.22402 1.7206
RightFoot  -11.6987 -0.0568047 7.27685
RightToes  -1.16417e-010 0 -3.6325e-017
Spine  31.4212 2.23625 0.330471
Spine1  6.94482 -3.40046 6.40515
HEad  -24.0744 8.43286 -12.8822
LeftShoulder1  3.21969 -8.2348 -21.0519
LeftArm  44.5307 -55.3041 -97.6726
LeftForeArm  14.6993 -1.26955 -18.8566
LeftHand  -0.0373077 4.88027 3.15803
RightShoulder  16.9484 38.7231 33.3957
RightArm  -3.37358 34.494 17.5085
RightForeArm  44.6529 4.90594 13.3524
RightHand  0.343858 5.17665 3.46216
LeftUpLeg  -107.178 22.8128 -64.6465
LeftLeg  98.0329 1.97835 -12.503
LeftFoot  12.5142 7.62194 -35.4028
LeftToes  1.03528e-008 1.55373e-010 -2.26046e-010
961
root  46.8864 38.2497 -64.3308 19.5401 -81.1457 -16.8259
RightUpLeg  -21.3392 -10.2627 10.5594
RightLeg  25.135 2.51043 1.04998
RightFoot  -13.5888 0.057909 7.64892
RightToes  -1.16417e-010 0 -3.6325e-017
Spine  32.4328 2.37785 0.255689
Spine1  5.94735 -2.93649 6.52303
HEad  -24.6745 8.55782 -12.9203
LeftShoulder1  3.1417 -8.1081 -20.6541
LeftArm  46.142 -54.1128 -100.648
LeftForeArm  16.3731 -1.42653 -18.7749
LeftHand  -0.0331092 5.07596 3.2449
RightShoulder  16.408 37.908 32.9283
RightArm  6.26004 32.9048 17.468
RightForeArm  39.6928 9.50097 12.507
RightHand  0.469407 4.03699 5.50218
LeftUpLeg  -105.076 21.6075 -63.6131
LeftLeg  98.2432 1.52745 -9.85416
LeftFoot  13.0955 5.75494 -26.5274
LeftToes  1.03528e-008 1.55373e-010 -2.26046e-010
962
root  46.3871 37.9004 -64.6124 19.4684 -80.4508 -16.8799
RightUpLeg  -22.4152 -9.71813 11.4622
RightLeg  28.8145 1.01855 0.361578
RightFoot  -15.1245 0.0531599 4.71274
RightToes  -1.16417e-010 0 -3.6325e-017
Spine  32.9455 2.21693 0.323253
Spine1  5.68269 -2.92917 6.60671
HEad  -26.71 9.23506 -13.5686
LeftShoulder1  3.15381 -8.0359 -20.9472
LeftArm  52.104 -53.0795 -102.045
LeftForeArm  12.3127 -3.17722 -18.8027
LeftHand  -0.0285167 5.27675 3.00513
RightShoulder  16.0376 38.2994 31.6563
RightArm  11.5396 32.0183 18.0668
RightForeArm  40.5862 11.0111 11.9501
RightHand  0.555937 3.81501 6.7382
LeftUpLeg  -102.833 20.4135 -61.8658
LeftLeg  99.0618 0.368861 -3.27662
LeftFoot  12.2956 3.52308 -17.0924
LeftToes  1.03528e-008 1.55373e-010 -2.26046e-010
